<?xml version="1.0" encoding="UTF-8" standalone="no"?>
<!DOCTYPE svg PUBLIC "-//W3C//DTD SVG 1.1//EN"
 "http://www.w3.org/Graphics/SVG/1.1/DTD/svg11.dtd">
<!-- Generated by graphviz version 8.1.0 (20230707.0739)
 -->
<!-- Title: controllers_diagram Pages: 1 -->
<svg width="800pt" height="761pt"
 viewBox="0.00 0.00 800.43 761.00" xmlns="http://www.w3.org/2000/svg" xmlns:xlink="http://www.w3.org/1999/xlink">
<g id="graph0" class="graph" transform="scale(1 1) rotate(0) translate(4 757)">
<title>controllers_diagram</title>
<polygon fill="none" stroke="none" points="-4,4 -4,-757 796.43,-757 796.43,4 -4,4"/>
<!-- _diagram_info -->
<g id="node1" class="node">
<title>_diagram_info</title>
<text text-anchor="start" x="368" y="-112.6" font-family="Times,serif" font-size="13.00">Controllers diagram</text>
<text text-anchor="start" x="368" y="-99.6" font-family="Times,serif" font-size="13.00">Date: Sep 29 2023 &#45; 13:52</text>
<text text-anchor="start" x="368" y="-86.6" font-family="Times,serif" font-size="13.00">Migration version: 20230928122420</text>
<text text-anchor="start" x="368" y="-73.6" font-family="Times,serif" font-size="13.00">Generated by RailRoady 1.6.0</text>
<text text-anchor="start" x="368" y="-60.6" font-family="Times,serif" font-size="13.00">http://railroady.prestonlee.com</text>
</g>
<!-- ApplicationController -->
<g id="node2" class="node">
<title>ApplicationController</title>
<path fill="none" stroke="black" d="M120,-36.5C120,-36.5 293.93,-36.5 293.93,-36.5 299.93,-36.5 305.93,-42.5 305.93,-48.5 305.93,-48.5 305.93,-140.5 305.93,-140.5 305.93,-146.5 299.93,-152.5 293.93,-152.5 293.93,-152.5 120,-152.5 120,-152.5 114,-152.5 108,-146.5 108,-140.5 108,-140.5 108,-48.5 108,-48.5 108,-42.5 114,-36.5 120,-36.5"/>
<text text-anchor="middle" x="206.97" y="-137.3" font-family="Times,serif" font-size="14.00">ApplicationController</text>
<polyline fill="none" stroke="black" points="108,-130.5 305.93,-130.5"/>
<text text-anchor="start" x="116" y="-115.3" font-family="Times,serif" font-size="14.00">after_sign_in_path_for</text>
<text text-anchor="start" x="116" y="-101.3" font-family="Times,serif" font-size="14.00">switch_locale</text>
<polyline fill="none" stroke="black" points="108,-94.5 305.93,-94.5"/>
<text text-anchor="start" x="116" y="-79.3" font-family="Times,serif" font-size="14.00">configure_permitted_parameters</text>
<polyline fill="none" stroke="black" points="108,-72.5 305.93,-72.5"/>
<text text-anchor="start" x="116" y="-57.3" font-family="Times,serif" font-size="14.00">_layout</text>
<text text-anchor="start" x="116" y="-43.3" font-family="Times,serif" font-size="14.00">_layout_from_proc</text>
</g>
<!-- BoardController -->
<g id="node3" class="node">
<title>BoardController</title>
<path fill="none" stroke="black" d="M678,-594.5C678,-594.5 778.08,-594.5 778.08,-594.5 784.08,-594.5 790.08,-600.5 790.08,-606.5 790.08,-606.5 790.08,-686.5 790.08,-686.5 790.08,-692.5 784.08,-698.5 778.08,-698.5 778.08,-698.5 678,-698.5 678,-698.5 672,-698.5 666,-692.5 666,-686.5 666,-686.5 666,-606.5 666,-606.5 666,-600.5 672,-594.5 678,-594.5"/>
<text text-anchor="middle" x="728.04" y="-683.3" font-family="Times,serif" font-size="14.00">BoardController</text>
<polyline fill="none" stroke="black" points="666,-676.5 790.08,-676.5"/>
<text text-anchor="start" x="674" y="-661.3" font-family="Times,serif" font-size="14.00">index</text>
<polyline fill="none" stroke="black" points="666,-654.5 790.08,-654.5"/>
<polyline fill="none" stroke="black" points="666,-630.5 790.08,-630.5"/>
<text text-anchor="start" x="674" y="-615.3" font-family="Times,serif" font-size="14.00">_layout</text>
<text text-anchor="start" x="674" y="-601.3" font-family="Times,serif" font-size="14.00">_layout_from_proc</text>
</g>
<!-- CommissionsController -->
<g id="node4" class="node">
<title>CommissionsController</title>
<path fill="none" stroke="black" d="M498,-162.5C498,-162.5 623.79,-162.5 623.79,-162.5 629.79,-162.5 635.79,-168.5 635.79,-174.5 635.79,-174.5 635.79,-366.5 635.79,-366.5 635.79,-372.5 629.79,-378.5 623.79,-378.5 623.79,-378.5 498,-378.5 498,-378.5 492,-378.5 486,-372.5 486,-366.5 486,-366.5 486,-174.5 486,-174.5 486,-168.5 492,-162.5 498,-162.5"/>
<text text-anchor="middle" x="560.89" y="-363.3" font-family="Times,serif" font-size="14.00">CommissionsController</text>
<polyline fill="none" stroke="black" points="486,-356.5 635.79,-356.5"/>
<text text-anchor="start" x="494" y="-341.3" font-family="Times,serif" font-size="14.00">create</text>
<text text-anchor="start" x="494" y="-327.3" font-family="Times,serif" font-size="14.00">destroy</text>
<text text-anchor="start" x="494" y="-313.3" font-family="Times,serif" font-size="14.00">edit</text>
<text text-anchor="start" x="494" y="-299.3" font-family="Times,serif" font-size="14.00">index</text>
<text text-anchor="start" x="494" y="-285.3" font-family="Times,serif" font-size="14.00">new</text>
<text text-anchor="start" x="494" y="-271.3" font-family="Times,serif" font-size="14.00">show</text>
<text text-anchor="start" x="494" y="-257.3" font-family="Times,serif" font-size="14.00">update</text>
<polyline fill="none" stroke="black" points="486,-250.5 635.79,-250.5"/>
<polyline fill="none" stroke="black" points="486,-226.5 635.79,-226.5"/>
<text text-anchor="start" x="494" y="-211.3" font-family="Times,serif" font-size="14.00">_layout</text>
<text text-anchor="start" x="494" y="-197.3" font-family="Times,serif" font-size="14.00">_layout_from_proc</text>
<text text-anchor="start" x="494" y="-183.3" font-family="Times,serif" font-size="14.00">commission_params</text>
<text text-anchor="start" x="494" y="-169.3" font-family="Times,serif" font-size="14.00">set_commission</text>
</g>
<!-- DefenseProcessesController -->
<g id="node5" class="node">
<title>DefenseProcessesController</title>
<path fill="none" stroke="black" d="M282,-180.5C282,-180.5 431.84,-180.5 431.84,-180.5 437.84,-180.5 443.84,-186.5 443.84,-192.5 443.84,-192.5 443.84,-384.5 443.84,-384.5 443.84,-390.5 437.84,-396.5 431.84,-396.5 431.84,-396.5 282,-396.5 282,-396.5 276,-396.5 270,-390.5 270,-384.5 270,-384.5 270,-192.5 270,-192.5 270,-186.5 276,-180.5 282,-180.5"/>
<text text-anchor="middle" x="356.92" y="-381.3" font-family="Times,serif" font-size="14.00">DefenseProcessesController</text>
<polyline fill="none" stroke="black" points="270,-374.5 443.84,-374.5"/>
<text text-anchor="start" x="278" y="-359.3" font-family="Times,serif" font-size="14.00">create</text>
<text text-anchor="start" x="278" y="-345.3" font-family="Times,serif" font-size="14.00">destroy</text>
<text text-anchor="start" x="278" y="-331.3" font-family="Times,serif" font-size="14.00">edit</text>
<text text-anchor="start" x="278" y="-317.3" font-family="Times,serif" font-size="14.00">index</text>
<text text-anchor="start" x="278" y="-303.3" font-family="Times,serif" font-size="14.00">new</text>
<text text-anchor="start" x="278" y="-289.3" font-family="Times,serif" font-size="14.00">show</text>
<text text-anchor="start" x="278" y="-275.3" font-family="Times,serif" font-size="14.00">update</text>
<polyline fill="none" stroke="black" points="270,-268.5 443.84,-268.5"/>
<polyline fill="none" stroke="black" points="270,-244.5 443.84,-244.5"/>
<text text-anchor="start" x="278" y="-229.3" font-family="Times,serif" font-size="14.00">_layout</text>
<text text-anchor="start" x="278" y="-215.3" font-family="Times,serif" font-size="14.00">_layout_from_proc</text>
<text text-anchor="start" x="278" y="-201.3" font-family="Times,serif" font-size="14.00">defense_process_params</text>
<text text-anchor="start" x="278" y="-187.3" font-family="Times,serif" font-size="14.00">set_defense_process</text>
</g>
<!-- DiplomasController -->
<g id="node6" class="node">
<title>DiplomasController</title>
<path fill="none" stroke="black" d="M120,-270.5C120,-270.5 223.99,-270.5 223.99,-270.5 229.99,-270.5 235.99,-276.5 235.99,-282.5 235.99,-282.5 235.99,-432.5 235.99,-432.5 235.99,-438.5 229.99,-444.5 223.99,-444.5 223.99,-444.5 120,-444.5 120,-444.5 114,-444.5 108,-438.5 108,-432.5 108,-432.5 108,-282.5 108,-282.5 108,-276.5 114,-270.5 120,-270.5"/>
<text text-anchor="middle" x="171.99" y="-429.3" font-family="Times,serif" font-size="14.00">DiplomasController</text>
<polyline fill="none" stroke="black" points="108,-422.5 235.99,-422.5"/>
<text text-anchor="start" x="116" y="-407.3" font-family="Times,serif" font-size="14.00">create</text>
<text text-anchor="start" x="116" y="-393.3" font-family="Times,serif" font-size="14.00">edit</text>
<text text-anchor="start" x="116" y="-379.3" font-family="Times,serif" font-size="14.00">new</text>
<text text-anchor="start" x="116" y="-365.3" font-family="Times,serif" font-size="14.00">show</text>
<polyline fill="none" stroke="black" points="108,-358.5 235.99,-358.5"/>
<polyline fill="none" stroke="black" points="108,-334.5 235.99,-334.5"/>
<text text-anchor="start" x="116" y="-319.3" font-family="Times,serif" font-size="14.00">_layout</text>
<text text-anchor="start" x="116" y="-305.3" font-family="Times,serif" font-size="14.00">_layout_from_proc</text>
<text text-anchor="start" x="116" y="-291.3" font-family="Times,serif" font-size="14.00">diploma_params</text>
<text text-anchor="start" x="116" y="-277.3" font-family="Times,serif" font-size="14.00">set_diploma</text>
</g>
<!-- GroupsController -->
<g id="node7" class="node">
<title>GroupsController</title>
<path fill="none" stroke="black" d="M174,-486.5C174,-486.5 274.08,-486.5 274.08,-486.5 280.08,-486.5 286.08,-492.5 286.08,-498.5 286.08,-498.5 286.08,-676.5 286.08,-676.5 286.08,-682.5 280.08,-688.5 274.08,-688.5 274.08,-688.5 174,-688.5 174,-688.5 168,-688.5 162,-682.5 162,-676.5 162,-676.5 162,-498.5 162,-498.5 162,-492.5 168,-486.5 174,-486.5"/>
<text text-anchor="middle" x="224.04" y="-673.3" font-family="Times,serif" font-size="14.00">GroupsController</text>
<polyline fill="none" stroke="black" points="162,-666.5 286.08,-666.5"/>
<text text-anchor="start" x="170" y="-651.3" font-family="Times,serif" font-size="14.00">create</text>
<text text-anchor="start" x="170" y="-637.3" font-family="Times,serif" font-size="14.00">destroy</text>
<text text-anchor="start" x="170" y="-623.3" font-family="Times,serif" font-size="14.00">edit</text>
<text text-anchor="start" x="170" y="-609.3" font-family="Times,serif" font-size="14.00">new</text>
<text text-anchor="start" x="170" y="-595.3" font-family="Times,serif" font-size="14.00">show</text>
<text text-anchor="start" x="170" y="-581.3" font-family="Times,serif" font-size="14.00">update</text>
<polyline fill="none" stroke="black" points="162,-574.5 286.08,-574.5"/>
<polyline fill="none" stroke="black" points="162,-550.5 286.08,-550.5"/>
<text text-anchor="start" x="170" y="-535.3" font-family="Times,serif" font-size="14.00">_layout</text>
<text text-anchor="start" x="170" y="-521.3" font-family="Times,serif" font-size="14.00">_layout_from_proc</text>
<text text-anchor="start" x="170" y="-507.3" font-family="Times,serif" font-size="14.00">group_params</text>
<text text-anchor="start" x="170" y="-493.3" font-family="Times,serif" font-size="14.00">set_group</text>
</g>
<!-- MarksController -->
<g id="node8" class="node">
<title>MarksController</title>
<path fill="none" stroke="black" d="M660,-414.5C660,-414.5 760.08,-414.5 760.08,-414.5 766.08,-414.5 772.08,-420.5 772.08,-426.5 772.08,-426.5 772.08,-548.5 772.08,-548.5 772.08,-554.5 766.08,-560.5 760.08,-560.5 760.08,-560.5 660,-560.5 660,-560.5 654,-560.5 648,-554.5 648,-548.5 648,-548.5 648,-426.5 648,-426.5 648,-420.5 654,-414.5 660,-414.5"/>
<text text-anchor="middle" x="710.04" y="-545.3" font-family="Times,serif" font-size="14.00">MarksController</text>
<polyline fill="none" stroke="black" points="648,-538.5 772.08,-538.5"/>
<text text-anchor="start" x="656" y="-523.3" font-family="Times,serif" font-size="14.00">create</text>
<text text-anchor="start" x="656" y="-509.3" font-family="Times,serif" font-size="14.00">delete</text>
<text text-anchor="start" x="656" y="-495.3" font-family="Times,serif" font-size="14.00">edit</text>
<polyline fill="none" stroke="black" points="648,-488.5 772.08,-488.5"/>
<polyline fill="none" stroke="black" points="648,-464.5 772.08,-464.5"/>
<text text-anchor="start" x="656" y="-449.3" font-family="Times,serif" font-size="14.00">_layout</text>
<text text-anchor="start" x="656" y="-435.3" font-family="Times,serif" font-size="14.00">_layout_from_proc</text>
<text text-anchor="start" x="656" y="-421.3" font-family="Times,serif" font-size="14.00">mark_params</text>
</g>
<!-- ProtocolsController -->
<g id="node9" class="node">
<title>ProtocolsController</title>
<path fill="none" stroke="black" d="M678,-162.5C678,-162.5 780.43,-162.5 780.43,-162.5 786.43,-162.5 792.43,-168.5 792.43,-174.5 792.43,-174.5 792.43,-282.5 792.43,-282.5 792.43,-288.5 786.43,-294.5 780.43,-294.5 780.43,-294.5 678,-294.5 678,-294.5 672,-294.5 666,-288.5 666,-282.5 666,-282.5 666,-174.5 666,-174.5 666,-168.5 672,-162.5 678,-162.5"/>
<text text-anchor="middle" x="729.22" y="-279.3" font-family="Times,serif" font-size="14.00">ProtocolsController</text>
<polyline fill="none" stroke="black" points="666,-272.5 792.43,-272.5"/>
<text text-anchor="start" x="674" y="-257.3" font-family="Times,serif" font-size="14.00">show</text>
<polyline fill="none" stroke="black" points="666,-250.5 792.43,-250.5"/>
<polyline fill="none" stroke="black" points="666,-226.5 792.43,-226.5"/>
<text text-anchor="start" x="674" y="-211.3" font-family="Times,serif" font-size="14.00">_layout</text>
<text text-anchor="start" x="674" y="-197.3" font-family="Times,serif" font-size="14.00">_layout_from_proc</text>
<text text-anchor="start" x="674" y="-183.3" font-family="Times,serif" font-size="14.00">protocol_params</text>
<text text-anchor="start" x="674" y="-169.3" font-family="Times,serif" font-size="14.00">set_protocol</text>
</g>
<!-- QuestionsController -->
<g id="node10" class="node">
<title>QuestionsController</title>
<path fill="none" stroke="black" d="M606,-0.5C606,-0.5 711.54,-0.5 711.54,-0.5 717.54,-0.5 723.54,-6.5 723.54,-12.5 723.54,-12.5 723.54,-106.5 723.54,-106.5 723.54,-112.5 717.54,-118.5 711.54,-118.5 711.54,-118.5 606,-118.5 606,-118.5 600,-118.5 594,-112.5 594,-106.5 594,-106.5 594,-12.5 594,-12.5 594,-6.5 600,-0.5 606,-0.5"/>
<text text-anchor="middle" x="658.77" y="-103.3" font-family="Times,serif" font-size="14.00">QuestionsController</text>
<polyline fill="none" stroke="black" points="594,-96.5 723.54,-96.5"/>
<text text-anchor="start" x="602" y="-81.3" font-family="Times,serif" font-size="14.00">create</text>
<polyline fill="none" stroke="black" points="594,-74.5 723.54,-74.5"/>
<polyline fill="none" stroke="black" points="594,-50.5 723.54,-50.5"/>
<text text-anchor="start" x="602" y="-35.3" font-family="Times,serif" font-size="14.00">_layout</text>
<text text-anchor="start" x="602" y="-21.3" font-family="Times,serif" font-size="14.00">_layout_from_proc</text>
<text text-anchor="start" x="602" y="-7.3" font-family="Times,serif" font-size="14.00">question_params</text>
</g>
<!-- StudentsController -->
<g id="node11" class="node">
<title>StudentsController</title>
<path fill="none" stroke="black" d="M498,-414.5C498,-414.5 598.08,-414.5 598.08,-414.5 604.08,-414.5 610.08,-420.5 610.08,-426.5 610.08,-426.5 610.08,-632.5 610.08,-632.5 610.08,-638.5 604.08,-644.5 598.08,-644.5 598.08,-644.5 498,-644.5 498,-644.5 492,-644.5 486,-638.5 486,-632.5 486,-632.5 486,-426.5 486,-426.5 486,-420.5 492,-414.5 498,-414.5"/>
<text text-anchor="middle" x="548.04" y="-629.3" font-family="Times,serif" font-size="14.00">StudentsController</text>
<polyline fill="none" stroke="black" points="486,-622.5 610.08,-622.5"/>
<text text-anchor="start" x="494" y="-607.3" font-family="Times,serif" font-size="14.00">update</text>
<text text-anchor="start" x="494" y="-593.3" font-family="Times,serif" font-size="14.00">create_pdf</text>
<text text-anchor="start" x="494" y="-579.3" font-family="Times,serif" font-size="14.00">destroy</text>
<text text-anchor="start" x="494" y="-565.3" font-family="Times,serif" font-size="14.00">edit</text>
<text text-anchor="start" x="494" y="-551.3" font-family="Times,serif" font-size="14.00">index</text>
<text text-anchor="start" x="494" y="-537.3" font-family="Times,serif" font-size="14.00">new</text>
<text text-anchor="start" x="494" y="-523.3" font-family="Times,serif" font-size="14.00">show</text>
<text text-anchor="start" x="494" y="-509.3" font-family="Times,serif" font-size="14.00">create</text>
<polyline fill="none" stroke="black" points="486,-502.5 610.08,-502.5"/>
<polyline fill="none" stroke="black" points="486,-478.5 610.08,-478.5"/>
<text text-anchor="start" x="494" y="-463.3" font-family="Times,serif" font-size="14.00">_layout</text>
<text text-anchor="start" x="494" y="-449.3" font-family="Times,serif" font-size="14.00">_layout_from_proc</text>
<text text-anchor="start" x="494" y="-435.3" font-family="Times,serif" font-size="14.00">set_student</text>
<text text-anchor="start" x="494" y="-421.3" font-family="Times,serif" font-size="14.00">student_params</text>
</g>
<!-- TeachersController -->
<g id="node12" class="node">
<title>TeachersController</title>
<path fill="none" stroke="black" d="M336,-432.5C336,-432.5 436.08,-432.5 436.08,-432.5 442.08,-432.5 448.08,-438.5 448.08,-444.5 448.08,-444.5 448.08,-636.5 448.08,-636.5 448.08,-642.5 442.08,-648.5 436.08,-648.5 436.08,-648.5 336,-648.5 336,-648.5 330,-648.5 324,-642.5 324,-636.5 324,-636.5 324,-444.5 324,-444.5 324,-438.5 330,-432.5 336,-432.5"/>
<text text-anchor="middle" x="386.04" y="-633.3" font-family="Times,serif" font-size="14.00">TeachersController</text>
<polyline fill="none" stroke="black" points="324,-626.5 448.08,-626.5"/>
<text text-anchor="start" x="332" y="-611.3" font-family="Times,serif" font-size="14.00">create</text>
<text text-anchor="start" x="332" y="-597.3" font-family="Times,serif" font-size="14.00">destroy</text>
<text text-anchor="start" x="332" y="-583.3" font-family="Times,serif" font-size="14.00">edit</text>
<text text-anchor="start" x="332" y="-569.3" font-family="Times,serif" font-size="14.00">index</text>
<text text-anchor="start" x="332" y="-555.3" font-family="Times,serif" font-size="14.00">new</text>
<text text-anchor="start" x="332" y="-541.3" font-family="Times,serif" font-size="14.00">show</text>
<text text-anchor="start" x="332" y="-527.3" font-family="Times,serif" font-size="14.00">update</text>
<polyline fill="none" stroke="black" points="324,-520.5 448.08,-520.5"/>
<polyline fill="none" stroke="black" points="324,-496.5 448.08,-496.5"/>
<text text-anchor="start" x="332" y="-481.3" font-family="Times,serif" font-size="14.00">_layout</text>
<text text-anchor="start" x="332" y="-467.3" font-family="Times,serif" font-size="14.00">_layout_from_proc</text>
<text text-anchor="start" x="332" y="-453.3" font-family="Times,serif" font-size="14.00">set_teacher</text>
<text text-anchor="start" x="332" y="-439.3" font-family="Times,serif" font-size="14.00">teacher_params</text>
</g>
<!-- WelcomeController -->
<g id="node13" class="node">
<title>WelcomeController</title>
<path fill="none" stroke="black" d="M12,-648.5C12,-648.5 114.07,-648.5 114.07,-648.5 120.07,-648.5 126.07,-654.5 126.07,-660.5 126.07,-660.5 126.07,-740.5 126.07,-740.5 126.07,-746.5 120.07,-752.5 114.07,-752.5 114.07,-752.5 12,-752.5 12,-752.5 6,-752.5 0,-746.5 0,-740.5 0,-740.5 0,-660.5 0,-660.5 0,-654.5 6,-648.5 12,-648.5"/>
<text text-anchor="middle" x="63.03" y="-737.3" font-family="Times,serif" font-size="14.00">WelcomeController</text>
<polyline fill="none" stroke="black" points="0,-730.5 126.07,-730.5"/>
<text text-anchor="start" x="8" y="-715.3" font-family="Times,serif" font-size="14.00">index</text>
<polyline fill="none" stroke="black" points="0,-708.5 126.07,-708.5"/>
<polyline fill="none" stroke="black" points="0,-684.5 126.07,-684.5"/>
<text text-anchor="start" x="8" y="-669.3" font-family="Times,serif" font-size="14.00">_layout</text>
<text text-anchor="start" x="8" y="-655.3" font-family="Times,serif" font-size="14.00">_layout_from_proc</text>
</g>
</g>
</svg>
