<?xml version="1.0" encoding="UTF-8" standalone="no"?>
<!DOCTYPE svg PUBLIC "-//W3C//DTD SVG 1.1//EN"
 "http://www.w3.org/Graphics/SVG/1.1/DTD/svg11.dtd">
<!-- Generated by graphviz version 8.1.0 (20230707.0739)
 -->
<!-- Title: models_diagram Pages: 1 -->
<svg width="976pt" height="348pt"
 viewBox="0.00 0.00 975.69 348.00" xmlns="http://www.w3.org/2000/svg" xmlns:xlink="http://www.w3.org/1999/xlink">
<g id="graph0" class="graph" transform="scale(1 1) rotate(0) translate(4 344)">
<title>models_diagram</title>
<polygon fill="none" stroke="none" points="-4,4 -4,-344 971.69,-344 971.69,4 -4,4"/>
<!-- _diagram_info -->
<g id="node1" class="node">
<title>_diagram_info</title>
<text text-anchor="start" x="8" y="-325.6" font-family="Times,serif" font-size="13.00">Models diagram</text>
<text text-anchor="start" x="8" y="-312.6" font-family="Times,serif" font-size="13.00">Date: Sep 29 2023 &#45; 13:52</text>
<text text-anchor="start" x="8" y="-299.6" font-family="Times,serif" font-size="13.00">Migration version: 20230928122420</text>
<text text-anchor="start" x="8" y="-286.6" font-family="Times,serif" font-size="13.00">Generated by RailRoady 1.6.0</text>
<text text-anchor="start" x="8" y="-273.6" font-family="Times,serif" font-size="13.00">http://railroady.prestonlee.com</text>
</g>
<!-- Ability -->
<g id="node2" class="node">
<title>Ability</title>
<polygon fill="none" stroke="black" points="281.52,-321.5 225.85,-321.5 225.85,-285.5 281.52,-285.5 281.52,-321.5"/>
<text text-anchor="middle" x="253.69" y="-299.3" font-family="Times,serif" font-size="14.00">Ability</text>
</g>
<!-- ApplicationRecord -->
<g id="node3" class="node">
<title>ApplicationRecord</title>
<ellipse fill="none" stroke="black" cx="376.69" cy="-303.5" rx="77.4" ry="18"/>
<text text-anchor="middle" x="376.69" y="-299.3" font-family="Times,serif" font-size="14.00">ApplicationRecord</text>
</g>
<!-- Commission -->
<g id="node4" class="node">
<title>Commission</title>
<ellipse fill="none" stroke="black" cx="526.69" cy="-303.5" rx="54.83" ry="18"/>
<text text-anchor="middle" x="526.69" y="-299.3" font-family="Times,serif" font-size="14.00">Commission</text>
</g>
<!-- CommissionAssignment -->
<g id="node5" class="node">
<title>CommissionAssignment</title>
<ellipse fill="none" stroke="black" cx="528.69" cy="-145" rx="97.08" ry="18"/>
<text text-anchor="middle" x="528.69" y="-140.8" font-family="Times,serif" font-size="14.00">CommissionAssignment</text>
</g>
<!-- Commission&#45;&gt;CommissionAssignment -->
<g id="edge1" class="edge">
<title>Commission&#45;&gt;CommissionAssignment</title>
<path fill="none" stroke="#87f2f4" d="M486.48,-283.59C473,-275.05 459.51,-263.57 452.03,-249 449.18,-243.47 449.86,-240.83 452.03,-235 461.65,-209.07 482.6,-185.64 500.16,-169.33"/>
<polygon fill="#87f2f4" stroke="#87f2f4" points="486.21,-283.43 492.52,-292.4 490.51,-285.98 494.81,-288.53 494.81,-288.53 494.81,-288.53 490.51,-285.98 497.11,-284.65 486.21,-283.43 486.21,-283.43"/>
<polygon fill="#87f2f4" stroke="#87f2f4" points="500,-169.47 510.45,-166.14 503.72,-166.13 507.44,-162.79 507.44,-162.79 507.44,-162.79 503.72,-166.13 504.44,-159.44 500,-169.47 500,-169.47"/>
<text text-anchor="middle" x="521.52" y="-237.8" font-family="Times,serif" font-size="14.00">commision_assignments</text>
</g>
<!-- Group -->
<g id="node8" class="node">
<title>Group</title>
<ellipse fill="none" stroke="black" cx="664.69" cy="-199" rx="32.7" ry="18"/>
<text text-anchor="middle" x="664.69" y="-194.8" font-family="Times,serif" font-size="14.00">Group</text>
</g>
<!-- Commission&#45;&gt;Group -->
<g id="edge3" class="edge">
<title>Commission&#45;&gt;Group</title>
<path fill="none" stroke="#3732fc" d="M564.44,-283.36C581.42,-274 601.28,-261.97 617.69,-249 627.42,-241.31 637.08,-231.67 645.1,-222.98"/>
<polygon fill="#3732fc" stroke="#3732fc" points="564.66,-283.25 553.72,-284.05 560.26,-285.63 555.86,-288 555.86,-288 555.86,-288 560.26,-285.63 558,-291.96 564.66,-283.25 564.66,-283.25"/>
<polygon fill="#3732fc" stroke="#3732fc" points="645,-223.09 655.03,-218.66 648.34,-219.37 651.68,-215.65 651.68,-215.65 651.68,-215.65 648.34,-219.37 648.33,-212.65 645,-223.09 645,-223.09"/>
</g>
<!-- Teacher -->
<g id="node13" class="node">
<title>Teacher</title>
<ellipse fill="none" stroke="black" cx="509.69" cy="-18" rx="37.96" ry="18"/>
<text text-anchor="middle" x="509.69" y="-13.8" font-family="Times,serif" font-size="14.00">Teacher</text>
</g>
<!-- Commission&#45;&gt;Teacher -->
<g id="edge2" class="edge">
<title>Commission&#45;&gt;Teacher</title>
<path fill="none" stroke="#34381f" d="M486.57,-283.76C472.01,-275.1 456.7,-263.48 446.69,-249 424.37,-216.72 431.16,-201.99 426.69,-163 424.86,-147.1 421.54,-142.15 426.69,-127 438.21,-93.1 465.13,-61.52 485.21,-41.38"/>
<polygon fill="#34381f" stroke="#34381f" points="486.3,-283.61 492.8,-292.44 490.66,-286.06 495.01,-288.52 495.01,-288.52 495.01,-288.52 490.66,-286.06 497.22,-284.6 486.3,-283.61 486.3,-283.61"/>
<polygon fill="#34381f" stroke="#34381f" points="485.11,-41.48 495.41,-37.71 488.68,-37.98 492.26,-34.49 492.26,-34.49 492.26,-34.49 488.68,-37.98 489.11,-31.27 485.11,-41.48 485.11,-41.48"/>
</g>
<!-- CommissionAssignment&#45;&gt;Commission -->
<g id="edge5" class="edge">
<title>CommissionAssignment&#45;&gt;Commission</title>
<path fill="none" stroke="#dc4d35" d="M557.73,-169.42C579.29,-189.83 602.86,-220.53 589.69,-249 583.68,-261.99 572.78,-272.99 561.72,-281.56"/>
<polygon fill="#dc4d35" stroke="#dc4d35" points="557.96,-169.63 553.58,-159.58 554.26,-166.27 550.55,-162.91 550.55,-162.91 550.55,-162.91 554.26,-166.27 547.53,-166.25 557.96,-169.63 557.96,-169.63"/>
<polygon fill="#dc4d35" stroke="#dc4d35" points="561.8,-281.51 551.06,-283.73 557.75,-284.44 553.7,-287.38 553.7,-287.38 553.7,-287.38 557.75,-284.44 556.35,-291.02 561.8,-281.51 561.8,-281.51"/>
</g>
<!-- CommissionAssignment&#45;&gt;Teacher -->
<g id="edge4" class="edge">
<title>CommissionAssignment&#45;&gt;Teacher</title>
<path fill="none" stroke="#f3aeab" d="M513.63,-117.86C512.44,-114.94 511.42,-111.96 510.69,-109 505.56,-88.33 505.61,-64.17 506.78,-46.09"/>
<polygon fill="#f3aeab" stroke="#f3aeab" points="513.59,-117.78 513.78,-128.74 515.72,-122.3 517.85,-126.82 517.85,-126.82 517.85,-126.82 515.72,-122.3 521.93,-124.91 513.59,-117.78 513.59,-117.78"/>
<polygon fill="#f3aeab" stroke="#f3aeab" points="506.77,-46.18 512.05,-36.57 507.16,-41.2 507.56,-36.22 507.56,-36.22 507.56,-36.22 507.16,-41.2 503.07,-35.86 506.77,-46.18 506.77,-46.18"/>
</g>
<!-- DefenseProcess -->
<g id="node6" class="node">
<title>DefenseProcess</title>
<ellipse fill="none" stroke="black" cx="871.69" cy="-303.5" rx="66.1" ry="18"/>
<text text-anchor="middle" x="871.69" y="-299.3" font-family="Times,serif" font-size="14.00">DefenseProcess</text>
</g>
<!-- DefenseProcess&#45;&gt;Group -->
<g id="edge7" class="edge">
<title>DefenseProcess&#45;&gt;Group</title>
<path fill="none" stroke="#06dbca" d="M831.74,-282.72C792.58,-263.33 733.6,-234.12 697.21,-216.1"/>
<polygon fill="#06dbca" stroke="#06dbca" points="831.74,-282.72 838.7,-291.19 836.22,-284.94 840.7,-287.15 840.7,-287.15 840.7,-287.15 836.22,-284.94 842.69,-283.12 831.74,-282.72 831.74,-282.72"/>
<polygon fill="#06dbca" stroke="#06dbca" points="697.43,-216.21 690.47,-207.74 692.95,-213.99 688.47,-211.78 688.47,-211.78 688.47,-211.78 692.95,-213.99 686.47,-215.81 697.43,-216.21 697.43,-216.21"/>
</g>
<!-- User -->
<g id="node14" class="node">
<title>User</title>
<ellipse fill="none" stroke="black" cx="940.69" cy="-199" rx="27" ry="18"/>
<text text-anchor="middle" x="940.69" y="-194.8" font-family="Times,serif" font-size="14.00">User</text>
</g>
<!-- DefenseProcess&#45;&gt;User -->
<g id="edge6" class="edge">
<title>DefenseProcess&#45;&gt;User</title>
<path fill="none" stroke="#a65b2d" d="M888.66,-277.29C899.65,-260.97 913.86,-239.85 924.66,-223.81"/>
<polygon fill="#a65b2d" stroke="#a65b2d" points="888.67,-277.28 879.35,-283.06 885.87,-281.43 883.08,-285.57 883.08,-285.57 883.08,-285.57 885.87,-281.43 886.81,-288.09 888.67,-277.28 888.67,-277.28"/>
<polygon fill="#a65b2d" stroke="#a65b2d" points="924.37,-224.23 933.69,-218.45 927.17,-220.09 929.96,-215.94 929.96,-215.94 929.96,-215.94 927.17,-220.09 926.23,-213.43 924.37,-224.23 924.37,-224.23"/>
</g>
<!-- Diploma -->
<g id="node7" class="node">
<title>Diploma</title>
<ellipse fill="none" stroke="black" cx="854.69" cy="-199" rx="41.05" ry="18"/>
<text text-anchor="middle" x="854.69" y="-194.8" font-family="Times,serif" font-size="14.00">Diploma</text>
</g>
<!-- Mark -->
<g id="node9" class="node">
<title>Mark</title>
<ellipse fill="none" stroke="black" cx="830.69" cy="-91" rx="29.26" ry="18"/>
<text text-anchor="middle" x="830.69" y="-86.8" font-family="Times,serif" font-size="14.00">Mark</text>
</g>
<!-- Diploma&#45;&gt;Mark -->
<g id="edge10" class="edge">
<title>Diploma&#45;&gt;Mark</title>
<path fill="none" stroke="#9929ae" d="M848.67,-171.41C845,-155.2 840.33,-134.57 836.67,-118.4"/>
<polygon fill="#9929ae" stroke="#9929ae" points="848.62,-171.22 846.44,-181.96 849.73,-176.09 850.83,-180.97 850.83,-180.97 850.83,-180.97 849.73,-176.09 855.22,-179.98 848.62,-171.22 848.62,-171.22"/>
<polygon fill="#9929ae" stroke="#9929ae" points="836.74,-118.74 838.92,-107.99 835.64,-113.87 834.53,-108.99 834.53,-108.99 834.53,-108.99 835.64,-113.87 830.15,-109.98 836.74,-118.74 836.74,-118.74"/>
</g>
<!-- Question -->
<g id="node11" class="node">
<title>Question</title>
<ellipse fill="none" stroke="black" cx="919.69" cy="-91" rx="42.04" ry="18"/>
<text text-anchor="middle" x="919.69" y="-86.8" font-family="Times,serif" font-size="14.00">Question</text>
</g>
<!-- Diploma&#45;&gt;Question -->
<g id="edge9" class="edge">
<title>Diploma&#45;&gt;Question</title>
<path fill="none" stroke="#5a2422" d="M870.07,-172.92C880.41,-156.06 893.98,-133.93 904.31,-117.07"/>
<polygon fill="#5a2422" stroke="#5a2422" points="870.07,-172.91 861.01,-179.09 867.46,-177.18 864.84,-181.44 864.84,-181.44 864.84,-181.44 867.46,-177.18 868.68,-183.79 870.07,-172.91 870.07,-172.91"/>
<polygon fill="#5a2422" stroke="#5a2422" points="904.16,-117.32 913.22,-111.15 906.77,-113.06 909.39,-108.8 909.39,-108.8 909.39,-108.8 906.77,-113.06 905.55,-106.44 904.16,-117.32 904.16,-117.32"/>
</g>
<!-- Student -->
<g id="node12" class="node">
<title>Student</title>
<ellipse fill="none" stroke="black" cx="739.69" cy="-91" rx="37.13" ry="18"/>
<text text-anchor="middle" x="739.69" y="-86.8" font-family="Times,serif" font-size="14.00">Student</text>
</g>
<!-- Diploma&#45;&gt;Student -->
<g id="edge8" class="edge">
<title>Diploma&#45;&gt;Student</title>
<path fill="none" stroke="#46253b" d="M830.6,-175.79C810.86,-157.61 783.09,-132.01 763.45,-113.9"/>
<polygon fill="#46253b" stroke="#46253b" points="830.37,-175.58 834.67,-185.67 834.04,-178.97 837.72,-182.36 837.72,-182.36 837.72,-182.36 834.04,-178.97 840.77,-179.05 830.37,-175.58 830.37,-175.58"/>
<polygon fill="#46253b" stroke="#46253b" points="763.71,-114.14 759.4,-104.05 760.03,-110.75 756.35,-107.36 756.35,-107.36 756.35,-107.36 760.03,-110.75 753.3,-110.67 763.71,-114.14 763.71,-114.14"/>
</g>
<!-- Group&#45;&gt;Student -->
<g id="edge11" class="edge">
<title>Group&#45;&gt;Student</title>
<path fill="none" stroke="#79bcd7" d="M681.78,-173.84C693.99,-156.58 710.35,-133.47 722.56,-116.2"/>
<polygon fill="#79bcd7" stroke="#79bcd7" points="681.85,-173.74 672.41,-179.3 678.97,-177.82 676.08,-181.9 676.08,-181.9 676.08,-181.9 678.97,-177.82 679.75,-184.5 681.85,-173.74 681.85,-173.74"/>
<polygon fill="#79bcd7" stroke="#79bcd7" points="722.41,-116.41 731.86,-110.85 725.3,-112.33 728.19,-108.25 728.19,-108.25 728.19,-108.25 725.3,-112.33 724.52,-105.65 722.41,-116.41 722.41,-116.41"/>
</g>
<!-- Protocol -->
<g id="node10" class="node">
<title>Protocol</title>
<ellipse fill="none" stroke="black" cx="755.69" cy="-199" rx="40.07" ry="18"/>
<text text-anchor="middle" x="755.69" y="-194.8" font-family="Times,serif" font-size="14.00">Protocol</text>
</g>
<!-- Protocol&#45;&gt;Student -->
<g id="edge12" class="edge">
<title>Protocol&#45;&gt;Student</title>
<path fill="none" stroke="#0bbd33" d="M751.64,-171.2C749.24,-155.28 746.2,-135.14 743.79,-119.16"/>
<polygon fill="#0bbd33" stroke="#0bbd33" points="751.62,-171.08 748.67,-181.64 752.37,-176.03 753.12,-180.97 753.12,-180.97 753.12,-180.97 752.37,-176.03 757.57,-180.3 751.62,-171.08 751.62,-171.08"/>
<polygon fill="#0bbd33" stroke="#0bbd33" points="743.8,-119.23 746.75,-108.67 743.05,-114.28 742.31,-109.34 742.31,-109.34 742.31,-109.34 743.05,-114.28 737.86,-110.01 743.8,-119.23 743.8,-119.23"/>
</g>
<!-- Student&#45;&gt;Teacher -->
<g id="edge13" class="edge">
<title>Student&#45;&gt;Teacher</title>
<path fill="none" stroke="#15b600" d="M699.66,-77.64C657.72,-64.7 592.2,-44.47 550.11,-31.48"/>
<polygon fill="#15b600" stroke="#15b600" points="699.59,-77.62 707.82,-84.87 704.37,-79.1 709.15,-80.57 709.15,-80.57 709.15,-80.57 704.37,-79.1 710.47,-76.27 699.59,-77.62 699.59,-77.62"/>
<polygon fill="#15b600" stroke="#15b600" points="550.28,-31.53 542.05,-24.28 545.5,-30.06 540.72,-28.58 540.72,-28.58 540.72,-28.58 545.5,-30.06 539.4,-32.88 550.28,-31.53 550.28,-31.53"/>
</g>
<!-- Teacher&#45;&gt;CommissionAssignment -->
<g id="edge14" class="edge">
<title>Teacher&#45;&gt;CommissionAssignment</title>
<path fill="none" stroke="#f9c5ba" d="M517.02,-45.94C517.64,-48.65 518.21,-51.37 518.69,-54 522.52,-74.94 525.1,-98.91 526.68,-116.85"/>
<polygon fill="#f9c5ba" stroke="#f9c5ba" points="517.05,-46.05 519.03,-35.27 515.85,-41.2 514.66,-36.34 514.66,-36.34 514.66,-36.34 515.85,-41.2 510.29,-37.41 517.05,-46.05 517.05,-46.05"/>
<polygon fill="#f9c5ba" stroke="#f9c5ba" points="526.66,-116.68 523,-127.01 527.08,-121.66 527.49,-126.64 527.49,-126.64 527.49,-126.64 527.08,-121.66 531.97,-126.27 526.66,-116.68 526.66,-116.68"/>
<text text-anchor="middle" x="595.52" y="-86.8" font-family="Times,serif" font-size="14.00">commision_assignments</text>
</g>
</g>
</svg>
