<?xml version="1.0" encoding="UTF-8" standalone="no"?>
<!DOCTYPE svg PUBLIC "-//W3C//DTD SVG 1.1//EN"
 "http://www.w3.org/Graphics/SVG/1.1/DTD/svg11.dtd">
<!-- Generated by graphviz version 8.1.0 (20230707.0739)
 -->
<!-- Title: models_diagram Pages: 1 -->
<svg width="1428pt" height="846pt"
 viewBox="0.00 0.00 1428.13 846.00" xmlns="http://www.w3.org/2000/svg" xmlns:xlink="http://www.w3.org/1999/xlink">
<g id="graph0" class="graph" transform="scale(1 1) rotate(0) translate(4 842)">
<title>models_diagram</title>
<polygon fill="none" stroke="none" points="-4,4 -4,-842 1424.13,-842 1424.13,4 -4,4"/>
<!-- _diagram_info -->
<g id="node1" class="node">
<title>_diagram_info</title>
<text text-anchor="start" x="8" y="-802.6" font-family="Times,serif" font-size="13.00">Models diagram</text>
<text text-anchor="start" x="8" y="-789.6" font-family="Times,serif" font-size="13.00">Date: Sep 29 2023 &#45; 13:52</text>
<text text-anchor="start" x="8" y="-776.6" font-family="Times,serif" font-size="13.00">Migration version: 20230928122420</text>
<text text-anchor="start" x="8" y="-763.6" font-family="Times,serif" font-size="13.00">Generated by RailRoady 1.6.0</text>
<text text-anchor="start" x="8" y="-750.6" font-family="Times,serif" font-size="13.00">http://railroady.prestonlee.com</text>
</g>
<!-- Ability -->
<g id="node2" class="node">
<title>Ability</title>
<polygon fill="none" stroke="black" points="225.85,-758.5 225.85,-802.5 281.52,-802.5 281.52,-758.5 225.85,-758.5"/>
<text text-anchor="middle" x="253.69" y="-787.3" font-family="Times,serif" font-size="14.00">Ability</text>
<polyline fill="none" stroke="black" points="225.85,-780.5 281.52,-780.5"/>
<text text-anchor="middle" x="253.69" y="-765.3" font-family="Times,serif" font-size="14.00"> </text>
</g>
<!-- ApplicationRecord -->
<g id="node3" class="node">
<title>ApplicationRecord</title>
<ellipse fill="none" stroke="black" cx="376.69" cy="-780.5" rx="77.4" ry="18"/>
<text text-anchor="middle" x="376.69" y="-776.3" font-family="Times,serif" font-size="14.00">ApplicationRecord</text>
</g>
<!-- Commission -->
<g id="node4" class="node">
<title>Commission</title>
<path fill="none" stroke="black" d="M484.02,-723.5C484.02,-723.5 609.36,-723.5 609.36,-723.5 615.36,-723.5 621.36,-729.5 621.36,-735.5 621.36,-735.5 621.36,-825.5 621.36,-825.5 621.36,-831.5 615.36,-837.5 609.36,-837.5 609.36,-837.5 484.02,-837.5 484.02,-837.5 478.02,-837.5 472.02,-831.5 472.02,-825.5 472.02,-825.5 472.02,-735.5 472.02,-735.5 472.02,-729.5 478.02,-723.5 484.02,-723.5"/>
<text text-anchor="middle" x="546.69" y="-822.3" font-family="Times,serif" font-size="14.00">Commission</text>
<polyline fill="none" stroke="black" points="472.02,-815.5 621.36,-815.5"/>
<text text-anchor="start" x="480.02" y="-800.3" font-family="Times,serif" font-size="14.00">id :INTEGER</text>
<text text-anchor="start" x="480.02" y="-786.3" font-family="Times,serif" font-size="14.00">name :varchar</text>
<text text-anchor="start" x="480.02" y="-772.3" font-family="Times,serif" font-size="14.00">number :INTEGER</text>
<text text-anchor="start" x="480.02" y="-758.3" font-family="Times,serif" font-size="14.00">head_id :INTEGER</text>
<text text-anchor="start" x="480.02" y="-744.3" font-family="Times,serif" font-size="14.00">created_at :datetime(6)</text>
<text text-anchor="start" x="480.02" y="-730.3" font-family="Times,serif" font-size="14.00">updated_at :datetime(6)</text>
</g>
<!-- CommissionAssignment -->
<g id="node5" class="node">
<title>CommissionAssignment</title>
<path fill="none" stroke="black" d="M509.28,-369.5C509.28,-369.5 654.1,-369.5 654.1,-369.5 660.1,-369.5 666.1,-375.5 666.1,-381.5 666.1,-381.5 666.1,-457.5 666.1,-457.5 666.1,-463.5 660.1,-469.5 654.1,-469.5 654.1,-469.5 509.28,-469.5 509.28,-469.5 503.28,-469.5 497.28,-463.5 497.28,-457.5 497.28,-457.5 497.28,-381.5 497.28,-381.5 497.28,-375.5 503.28,-369.5 509.28,-369.5"/>
<text text-anchor="middle" x="581.69" y="-454.3" font-family="Times,serif" font-size="14.00">CommissionAssignment</text>
<polyline fill="none" stroke="black" points="497.28,-447.5 666.1,-447.5"/>
<text text-anchor="start" x="505.28" y="-432.3" font-family="Times,serif" font-size="14.00">id :INTEGER</text>
<text text-anchor="start" x="505.28" y="-418.3" font-family="Times,serif" font-size="14.00">teacher_id :INTEGER</text>
<text text-anchor="start" x="505.28" y="-404.3" font-family="Times,serif" font-size="14.00">commission_id :INTEGER</text>
<text text-anchor="start" x="505.28" y="-390.3" font-family="Times,serif" font-size="14.00">created_at :datetime(6)</text>
<text text-anchor="start" x="505.28" y="-376.3" font-family="Times,serif" font-size="14.00">updated_at :datetime(6)</text>
</g>
<!-- Commission&#45;&gt;CommissionAssignment -->
<g id="edge1" class="edge">
<title>Commission&#45;&gt;CommissionAssignment</title>
<path fill="none" stroke="#cc4fdb" d="M474.09,-714.95C471.35,-707.39 470.39,-699.37 472.03,-691 487.05,-613.97 524.03,-531.14 550.9,-477.72"/>
<polygon fill="#cc4fdb" stroke="#cc4fdb" points="473.89,-714.53 473.97,-725.49 475.98,-719.07 478.06,-723.62 478.06,-723.62 478.06,-723.62 475.98,-719.07 482.15,-721.74 473.89,-714.53 473.89,-714.53"/>
<polygon fill="#cc4fdb" stroke="#cc4fdb" points="550.77,-477.99 559.31,-471.11 553.03,-473.53 555.29,-469.08 555.29,-469.08 555.29,-469.08 553.03,-473.53 551.28,-467.04 550.77,-477.99 550.77,-477.99"/>
<text text-anchor="middle" x="541.52" y="-693.8" font-family="Times,serif" font-size="14.00">commision_assignments</text>
</g>
<!-- Group -->
<g id="node8" class="node">
<title>Group</title>
<path fill="none" stroke="black" d="M663.24,-488.5C663.24,-488.5 832.13,-488.5 832.13,-488.5 838.13,-488.5 844.13,-494.5 844.13,-500.5 844.13,-500.5 844.13,-660.5 844.13,-660.5 844.13,-666.5 838.13,-672.5 832.13,-672.5 832.13,-672.5 663.24,-672.5 663.24,-672.5 657.24,-672.5 651.24,-666.5 651.24,-660.5 651.24,-660.5 651.24,-500.5 651.24,-500.5 651.24,-494.5 657.24,-488.5 663.24,-488.5"/>
<text text-anchor="middle" x="747.69" y="-657.3" font-family="Times,serif" font-size="14.00">Group</text>
<polyline fill="none" stroke="black" points="651.24,-650.5 844.13,-650.5"/>
<text text-anchor="start" x="659.24" y="-635.3" font-family="Times,serif" font-size="14.00">commission_id :INTEGER</text>
<text text-anchor="start" x="659.24" y="-621.3" font-family="Times,serif" font-size="14.00">form :varchar</text>
<text text-anchor="start" x="659.24" y="-607.3" font-family="Times,serif" font-size="14.00">specialization :varchar</text>
<text text-anchor="start" x="659.24" y="-593.3" font-family="Times,serif" font-size="14.00">name_number :varchar</text>
<text text-anchor="start" x="659.24" y="-579.3" font-family="Times,serif" font-size="14.00">specialty_code :INTEGER</text>
<text text-anchor="start" x="659.24" y="-565.3" font-family="Times,serif" font-size="14.00">specialty_title :varchar</text>
<text text-anchor="start" x="659.24" y="-551.3" font-family="Times,serif" font-size="14.00">degree :varchar</text>
<text text-anchor="start" x="659.24" y="-537.3" font-family="Times,serif" font-size="14.00">defense_process_id :INTEGER</text>
<text text-anchor="start" x="659.24" y="-523.3" font-family="Times,serif" font-size="14.00">created_at :datetime(6)</text>
<text text-anchor="start" x="659.24" y="-509.3" font-family="Times,serif" font-size="14.00">updated_at :datetime(6)</text>
<text text-anchor="start" x="659.24" y="-495.3" font-family="Times,serif" font-size="14.00">id :INTEGER</text>
</g>
<!-- Commission&#45;&gt;Group -->
<g id="edge3" class="edge">
<title>Commission&#45;&gt;Group</title>
<path fill="none" stroke="#76e51e" d="M624.43,-717.27C628.98,-713.19 633.43,-709.08 637.69,-705 646.11,-696.92 654.63,-688.3 663,-679.5"/>
<polygon fill="#76e51e" stroke="#76e51e" points="624.71,-717.02 614.23,-720.27 620.96,-720.33 617.21,-723.64 617.21,-723.64 617.21,-723.64 620.96,-720.33 620.19,-727.01 624.71,-717.02 624.71,-717.02"/>
<polygon fill="#76e51e" stroke="#76e51e" points="662.82,-679.7 672.95,-675.51 666.25,-676.06 669.68,-672.42 669.68,-672.42 669.68,-672.42 666.25,-676.06 666.41,-669.33 662.82,-679.7 662.82,-679.7"/>
</g>
<!-- Teacher -->
<g id="node13" class="node">
<title>Teacher</title>
<path fill="none" stroke="black" d="M500.14,-0.5C500.14,-0.5 633.23,-0.5 633.23,-0.5 639.23,-0.5 645.23,-6.5 645.23,-12.5 645.23,-12.5 645.23,-130.5 645.23,-130.5 645.23,-136.5 639.23,-142.5 633.23,-142.5 633.23,-142.5 500.14,-142.5 500.14,-142.5 494.14,-142.5 488.14,-136.5 488.14,-130.5 488.14,-130.5 488.14,-12.5 488.14,-12.5 488.14,-6.5 494.14,-0.5 500.14,-0.5"/>
<text text-anchor="middle" x="566.69" y="-127.3" font-family="Times,serif" font-size="14.00">Teacher</text>
<polyline fill="none" stroke="black" points="488.14,-120.5 645.23,-120.5"/>
<text text-anchor="start" x="496.14" y="-105.3" font-family="Times,serif" font-size="14.00">updated_at :datetime(6)</text>
<text text-anchor="start" x="496.14" y="-91.3" font-family="Times,serif" font-size="14.00">first_name :varchar</text>
<text text-anchor="start" x="496.14" y="-77.3" font-family="Times,serif" font-size="14.00">last_name :varchar</text>
<text text-anchor="start" x="496.14" y="-63.3" font-family="Times,serif" font-size="14.00">patronymic :varchar</text>
<text text-anchor="start" x="496.14" y="-49.3" font-family="Times,serif" font-size="14.00">academic_status :varchar</text>
<text text-anchor="start" x="496.14" y="-35.3" font-family="Times,serif" font-size="14.00">position :varchar</text>
<text text-anchor="start" x="496.14" y="-21.3" font-family="Times,serif" font-size="14.00">created_at :datetime(6)</text>
<text text-anchor="start" x="496.14" y="-7.3" font-family="Times,serif" font-size="14.00">id :INTEGER</text>
</g>
<!-- Commission&#45;&gt;Teacher -->
<g id="edge2" class="edge">
<title>Commission&#45;&gt;Teacher</title>
<path fill="none" stroke="#f18331" d="M473.1,-715.5C471.06,-712.1 469.24,-708.6 467.69,-705 465.22,-699.29 467.6,-697.22 467.69,-691 469.81,-547.6 461.42,-509.8 488.69,-369 503.12,-294.47 525.68,-210.96 542.83,-151.6"/>
<polygon fill="#f18331" stroke="#f18331" points="473.04,-715.41 474.82,-726.24 475.8,-719.58 478.57,-723.75 478.57,-723.75 478.57,-723.75 475.8,-719.58 482.32,-721.26 473.04,-715.41 473.04,-715.41"/>
<polygon fill="#f18331" stroke="#f18331" points="542.75,-151.89 549.86,-143.55 544.14,-147.09 545.54,-142.29 545.54,-142.29 545.54,-142.29 544.14,-147.09 541.22,-141.04 542.75,-151.89 542.75,-151.89"/>
</g>
<!-- CommissionAssignment&#45;&gt;Commission -->
<g id="edge5" class="edge">
<title>CommissionAssignment&#45;&gt;Commission</title>
<path fill="none" stroke="#7d5984" d="M602.04,-478.96C619.21,-537.84 637.01,-630.39 609.69,-705 608.42,-708.46 606.91,-711.88 605.21,-715.23"/>
<polygon fill="#7d5984" stroke="#7d5984" points="602.06,-479.03 603.49,-468.16 600.62,-474.24 599.18,-469.45 599.18,-469.45 599.18,-469.45 600.62,-474.24 594.87,-470.74 602.06,-479.03 602.06,-479.03"/>
<polygon fill="#7d5984" stroke="#7d5984" points="605.22,-715.21 596.39,-721.71 602.76,-719.57 600.3,-723.92 600.3,-723.92 600.3,-723.92 602.76,-719.57 604.22,-726.13 605.22,-715.21 605.22,-715.21"/>
</g>
<!-- CommissionAssignment&#45;&gt;Teacher -->
<g id="edge4" class="edge">
<title>CommissionAssignment&#45;&gt;Teacher</title>
<path fill="none" stroke="#9e5331" d="M568.81,-359.97C568.37,-356.94 567.99,-353.94 567.69,-351 560.71,-284.2 561.01,-207.89 562.75,-152.07"/>
<polygon fill="#9e5331" stroke="#9e5331" points="568.77,-359.77 565.91,-370.36 569.56,-364.71 570.35,-369.65 570.35,-369.65 570.35,-369.65 569.56,-364.71 574.8,-368.94 568.77,-359.77 568.77,-359.77"/>
<polygon fill="#9e5331" stroke="#9e5331" points="562.74,-152.23 567.57,-142.39 562.91,-147.24 563.07,-142.24 563.07,-142.24 563.07,-142.24 562.91,-147.24 558.58,-142.09 562.74,-152.23 562.74,-152.23"/>
</g>
<!-- DefenseProcess -->
<g id="node6" class="node">
<title>DefenseProcess</title>
<path fill="none" stroke="black" d="M1100.02,-730.5C1100.02,-730.5 1225.36,-730.5 1225.36,-730.5 1231.36,-730.5 1237.36,-736.5 1237.36,-742.5 1237.36,-742.5 1237.36,-818.5 1237.36,-818.5 1237.36,-824.5 1231.36,-830.5 1225.36,-830.5 1225.36,-830.5 1100.02,-830.5 1100.02,-830.5 1094.02,-830.5 1088.02,-824.5 1088.02,-818.5 1088.02,-818.5 1088.02,-742.5 1088.02,-742.5 1088.02,-736.5 1094.02,-730.5 1100.02,-730.5"/>
<text text-anchor="middle" x="1162.69" y="-815.3" font-family="Times,serif" font-size="14.00">DefenseProcess</text>
<polyline fill="none" stroke="black" points="1088.02,-808.5 1237.36,-808.5"/>
<text text-anchor="start" x="1096.02" y="-793.3" font-family="Times,serif" font-size="14.00">id :INTEGER</text>
<text text-anchor="start" x="1096.02" y="-779.3" font-family="Times,serif" font-size="14.00">nameID :varchar</text>
<text text-anchor="start" x="1096.02" y="-765.3" font-family="Times,serif" font-size="14.00">created_at :datetime(6)</text>
<text text-anchor="start" x="1096.02" y="-751.3" font-family="Times,serif" font-size="14.00">updated_at :datetime(6)</text>
<text text-anchor="start" x="1096.02" y="-737.3" font-family="Times,serif" font-size="14.00">user_id :INTEGER</text>
</g>
<!-- DefenseProcess&#45;&gt;Group -->
<g id="edge7" class="edge">
<title>DefenseProcess&#45;&gt;Group</title>
<path fill="none" stroke="#b4a46d" d="M1078.83,-760.12C1014.24,-743.01 924.19,-714.31 852.69,-673 852.6,-672.95 852.5,-672.89 852.41,-672.84"/>
<polygon fill="#b4a46d" stroke="#b4a46d" points="1078.5,-760.03 1087.04,-766.91 1083.34,-761.29 1088.17,-762.56 1088.17,-762.56 1088.17,-762.56 1083.34,-761.29 1089.31,-758.2 1078.5,-760.03 1078.5,-760.03"/>
<polygon fill="#b4a46d" stroke="#b4a46d" points="852.46,-672.87 846.26,-663.83 848.19,-670.27 843.92,-667.67 843.92,-667.67 843.92,-667.67 848.19,-670.27 841.58,-671.51 852.46,-672.87 852.46,-672.87"/>
</g>
<!-- User -->
<g id="node14" class="node">
<title>User</title>
<path fill="none" stroke="black" d="M1211.25,-502.5C1211.25,-502.5 1408.13,-502.5 1408.13,-502.5 1414.13,-502.5 1420.13,-508.5 1420.13,-514.5 1420.13,-514.5 1420.13,-646.5 1420.13,-646.5 1420.13,-652.5 1414.13,-658.5 1408.13,-658.5 1408.13,-658.5 1211.25,-658.5 1211.25,-658.5 1205.25,-658.5 1199.25,-652.5 1199.25,-646.5 1199.25,-646.5 1199.25,-514.5 1199.25,-514.5 1199.25,-508.5 1205.25,-502.5 1211.25,-502.5"/>
<text text-anchor="middle" x="1309.69" y="-643.3" font-family="Times,serif" font-size="14.00">User</text>
<polyline fill="none" stroke="black" points="1199.25,-636.5 1420.13,-636.5"/>
<text text-anchor="start" x="1207.25" y="-621.3" font-family="Times,serif" font-size="14.00">updated_at :datetime(6)</text>
<text text-anchor="start" x="1207.25" y="-607.3" font-family="Times,serif" font-size="14.00">email :varchar</text>
<text text-anchor="start" x="1207.25" y="-593.3" font-family="Times,serif" font-size="14.00">encrypted_password :varchar</text>
<text text-anchor="start" x="1207.25" y="-579.3" font-family="Times,serif" font-size="14.00">reset_password_token :varchar</text>
<text text-anchor="start" x="1207.25" y="-565.3" font-family="Times,serif" font-size="14.00">reset_password_sent_at :datetime(6)</text>
<text text-anchor="start" x="1207.25" y="-551.3" font-family="Times,serif" font-size="14.00">remember_created_at :datetime(6)</text>
<text text-anchor="start" x="1207.25" y="-537.3" font-family="Times,serif" font-size="14.00">role :INTEGER</text>
<text text-anchor="start" x="1207.25" y="-523.3" font-family="Times,serif" font-size="14.00">created_at :datetime(6)</text>
<text text-anchor="start" x="1207.25" y="-509.3" font-family="Times,serif" font-size="14.00">id :INTEGER</text>
</g>
<!-- DefenseProcess&#45;&gt;User -->
<g id="edge6" class="edge">
<title>DefenseProcess&#45;&gt;User</title>
<path fill="none" stroke="#89e3ea" d="M1204.83,-722.74C1217.91,-705.12 1232.61,-685.32 1246.78,-666.23"/>
<polygon fill="#89e3ea" stroke="#89e3ea" points="1204.99,-722.53 1195.41,-727.87 1202.01,-726.54 1199.02,-730.56 1199.02,-730.56 1199.02,-730.56 1202.01,-726.54 1202.64,-733.24 1204.99,-722.53 1204.99,-722.53"/>
<polygon fill="#89e3ea" stroke="#89e3ea" points="1246.64,-666.42 1256.21,-661.08 1249.62,-662.41 1252.6,-658.39 1252.6,-658.39 1252.6,-658.39 1249.62,-662.41 1248.99,-655.71 1246.64,-666.42 1246.64,-666.42"/>
</g>
<!-- Diploma -->
<g id="node7" class="node">
<title>Diploma</title>
<path fill="none" stroke="black" d="M1041.84,-495.5C1041.84,-495.5 1169.53,-495.5 1169.53,-495.5 1175.53,-495.5 1181.53,-501.5 1181.53,-507.5 1181.53,-507.5 1181.53,-653.5 1181.53,-653.5 1181.53,-659.5 1175.53,-665.5 1169.53,-665.5 1169.53,-665.5 1041.84,-665.5 1041.84,-665.5 1035.84,-665.5 1029.84,-659.5 1029.84,-653.5 1029.84,-653.5 1029.84,-507.5 1029.84,-507.5 1029.84,-501.5 1035.84,-495.5 1041.84,-495.5"/>
<text text-anchor="middle" x="1105.69" y="-650.3" font-family="Times,serif" font-size="14.00">Diploma</text>
<polyline fill="none" stroke="black" points="1029.84,-643.5 1181.53,-643.5"/>
<text text-anchor="start" x="1037.84" y="-628.3" font-family="Times,serif" font-size="14.00">updated_at :datetime(6)</text>
<text text-anchor="start" x="1037.84" y="-614.3" font-family="Times,serif" font-size="14.00">theme :varchar</text>
<text text-anchor="start" x="1037.84" y="-600.3" font-family="Times,serif" font-size="14.00">pages :INTEGER</text>
<text text-anchor="start" x="1037.84" y="-586.3" font-family="Times,serif" font-size="14.00">presentation :INTEGER</text>
<text text-anchor="start" x="1037.84" y="-572.3" font-family="Times,serif" font-size="14.00">language :varchar</text>
<text text-anchor="start" x="1037.84" y="-558.3" font-family="Times,serif" font-size="14.00">student_id :INTEGER</text>
<text text-anchor="start" x="1037.84" y="-544.3" font-family="Times,serif" font-size="14.00">mark :INTEGER</text>
<text text-anchor="start" x="1037.84" y="-530.3" font-family="Times,serif" font-size="14.00">sample_type :varchar</text>
<text text-anchor="start" x="1037.84" y="-516.3" font-family="Times,serif" font-size="14.00">created_at :datetime(6)</text>
<text text-anchor="start" x="1037.84" y="-502.3" font-family="Times,serif" font-size="14.00">id :INTEGER</text>
</g>
<!-- Mark -->
<g id="node9" class="node">
<title>Mark</title>
<path fill="none" stroke="black" d="M992.02,-208.5C992.02,-208.5 1117.36,-208.5 1117.36,-208.5 1123.36,-208.5 1129.36,-214.5 1129.36,-220.5 1129.36,-220.5 1129.36,-310.5 1129.36,-310.5 1129.36,-316.5 1123.36,-322.5 1117.36,-322.5 1117.36,-322.5 992.02,-322.5 992.02,-322.5 986.02,-322.5 980.02,-316.5 980.02,-310.5 980.02,-310.5 980.02,-220.5 980.02,-220.5 980.02,-214.5 986.02,-208.5 992.02,-208.5"/>
<text text-anchor="middle" x="1054.69" y="-307.3" font-family="Times,serif" font-size="14.00">Mark</text>
<polyline fill="none" stroke="black" points="980.02,-300.5 1129.36,-300.5"/>
<text text-anchor="start" x="988.02" y="-285.3" font-family="Times,serif" font-size="14.00">id :INTEGER</text>
<text text-anchor="start" x="988.02" y="-271.3" font-family="Times,serif" font-size="14.00">teacher_id :INTEGER</text>
<text text-anchor="start" x="988.02" y="-257.3" font-family="Times,serif" font-size="14.00">mark :INTEGER</text>
<text text-anchor="start" x="988.02" y="-243.3" font-family="Times,serif" font-size="14.00">diploma_id :INTEGER</text>
<text text-anchor="start" x="988.02" y="-229.3" font-family="Times,serif" font-size="14.00">created_at :datetime(6)</text>
<text text-anchor="start" x="988.02" y="-215.3" font-family="Times,serif" font-size="14.00">updated_at :datetime(6)</text>
</g>
<!-- Diploma&#45;&gt;Mark -->
<g id="edge10" class="edge">
<title>Diploma&#45;&gt;Mark</title>
<path fill="none" stroke="#9e9f5c" d="M1090.42,-485.83C1082.36,-436.35 1072.66,-376.82 1065.41,-332.28"/>
<polygon fill="#9e9f5c" stroke="#9e9f5c" points="1090.41,-485.75 1087.58,-496.35 1091.22,-490.69 1092.02,-495.62 1092.02,-495.62 1092.02,-495.62 1091.22,-490.69 1096.46,-494.9 1090.41,-485.75 1090.41,-485.75"/>
<polygon fill="#9e9f5c" stroke="#9e9f5c" points="1065.41,-332.31 1068.24,-321.71 1064.61,-327.37 1063.8,-322.44 1063.8,-322.44 1063.8,-322.44 1064.61,-327.37 1059.36,-323.16 1065.41,-332.31 1065.41,-332.31"/>
</g>
<!-- Question -->
<g id="node11" class="node">
<title>Question</title>
<path fill="none" stroke="black" d="M1159.02,-208.5C1159.02,-208.5 1284.36,-208.5 1284.36,-208.5 1290.36,-208.5 1296.36,-214.5 1296.36,-220.5 1296.36,-220.5 1296.36,-310.5 1296.36,-310.5 1296.36,-316.5 1290.36,-322.5 1284.36,-322.5 1284.36,-322.5 1159.02,-322.5 1159.02,-322.5 1153.02,-322.5 1147.02,-316.5 1147.02,-310.5 1147.02,-310.5 1147.02,-220.5 1147.02,-220.5 1147.02,-214.5 1153.02,-208.5 1159.02,-208.5"/>
<text text-anchor="middle" x="1221.69" y="-307.3" font-family="Times,serif" font-size="14.00">Question</text>
<polyline fill="none" stroke="black" points="1147.02,-300.5 1296.36,-300.5"/>
<text text-anchor="start" x="1155.02" y="-285.3" font-family="Times,serif" font-size="14.00">id :INTEGER</text>
<text text-anchor="start" x="1155.02" y="-271.3" font-family="Times,serif" font-size="14.00">teacher_id :INTEGER</text>
<text text-anchor="start" x="1155.02" y="-257.3" font-family="Times,serif" font-size="14.00">text :varchar</text>
<text text-anchor="start" x="1155.02" y="-243.3" font-family="Times,serif" font-size="14.00">diploma_id :INTEGER</text>
<text text-anchor="start" x="1155.02" y="-229.3" font-family="Times,serif" font-size="14.00">created_at :datetime(6)</text>
<text text-anchor="start" x="1155.02" y="-215.3" font-family="Times,serif" font-size="14.00">updated_at :datetime(6)</text>
</g>
<!-- Diploma&#45;&gt;Question -->
<g id="edge9" class="edge">
<title>Diploma&#45;&gt;Question</title>
<path fill="none" stroke="#e58e5c" d="M1140.16,-486.49C1158.62,-436.69 1180.9,-376.56 1197.5,-331.76"/>
<polygon fill="#e58e5c" stroke="#e58e5c" points="1140.25,-486.24 1132.55,-494.06 1138.51,-490.93 1136.77,-495.62 1136.77,-495.62 1136.77,-495.62 1138.51,-490.93 1140.99,-497.19 1140.25,-486.24 1140.25,-486.24"/>
<polygon fill="#e58e5c" stroke="#e58e5c" points="1197.48,-331.82 1205.18,-324 1199.22,-327.13 1200.96,-322.44 1200.96,-322.44 1200.96,-322.44 1199.22,-327.13 1196.74,-320.87 1197.48,-331.82 1197.48,-331.82"/>
</g>
<!-- Student -->
<g id="node12" class="node">
<title>Student</title>
<path fill="none" stroke="black" d="M789.28,-180.5C789.28,-180.5 934.1,-180.5 934.1,-180.5 940.1,-180.5 946.1,-186.5 946.1,-192.5 946.1,-192.5 946.1,-338.5 946.1,-338.5 946.1,-344.5 940.1,-350.5 934.1,-350.5 934.1,-350.5 789.28,-350.5 789.28,-350.5 783.28,-350.5 777.28,-344.5 777.28,-338.5 777.28,-338.5 777.28,-192.5 777.28,-192.5 777.28,-186.5 783.28,-180.5 789.28,-180.5"/>
<text text-anchor="middle" x="861.69" y="-335.3" font-family="Times,serif" font-size="14.00">Student</text>
<polyline fill="none" stroke="black" points="777.28,-328.5 946.1,-328.5"/>
<text text-anchor="start" x="785.28" y="-313.3" font-family="Times,serif" font-size="14.00">commission_id :INTEGER</text>
<text text-anchor="start" x="785.28" y="-299.3" font-family="Times,serif" font-size="14.00">full_name :varchar</text>
<text text-anchor="start" x="785.28" y="-285.3" font-family="Times,serif" font-size="14.00">theme :varchar</text>
<text text-anchor="start" x="785.28" y="-271.3" font-family="Times,serif" font-size="14.00">date :date</text>
<text text-anchor="start" x="785.28" y="-257.3" font-family="Times,serif" font-size="14.00">gender :varchar</text>
<text text-anchor="start" x="785.28" y="-243.3" font-family="Times,serif" font-size="14.00">group_id :INTEGER</text>
<text text-anchor="start" x="785.28" y="-229.3" font-family="Times,serif" font-size="14.00">created_at :datetime(6)</text>
<text text-anchor="start" x="785.28" y="-215.3" font-family="Times,serif" font-size="14.00">updated_at :datetime(6)</text>
<text text-anchor="start" x="785.28" y="-201.3" font-family="Times,serif" font-size="14.00">teacher_id :INTEGER</text>
<text text-anchor="start" x="785.28" y="-187.3" font-family="Times,serif" font-size="14.00">id :INTEGER</text>
</g>
<!-- Diploma&#45;&gt;Student -->
<g id="edge8" class="edge">
<title>Diploma&#45;&gt;Student</title>
<path fill="none" stroke="#c27cb9" d="M1034.27,-487.88C1002.42,-447.03 964.98,-399 933.13,-358.14"/>
<polygon fill="#c27cb9" stroke="#c27cb9" points="1034.15,-487.73 1036.75,-498.39 1037.23,-491.68 1040.3,-495.62 1040.3,-495.62 1040.3,-495.62 1037.23,-491.68 1043.85,-492.86 1034.15,-487.73 1034.15,-487.73"/>
<polygon fill="#c27cb9" stroke="#c27cb9" points="933.19,-358.22 930.59,-347.57 930.12,-354.28 927.04,-350.34 927.04,-350.34 927.04,-350.34 930.12,-354.28 923.49,-353.1 933.19,-358.22 933.19,-358.22"/>
</g>
<!-- Group&#45;&gt;Student -->
<g id="edge11" class="edge">
<title>Group&#45;&gt;Student</title>
<path fill="none" stroke="#2624a2" d="M784.21,-479.24C798.21,-440.79 814.11,-397.12 827.85,-359.4"/>
<polygon fill="#2624a2" stroke="#2624a2" points="784.24,-479.15 776.59,-487.01 782.53,-483.85 780.81,-488.55 780.81,-488.55 780.81,-488.55 782.53,-483.85 785.04,-490.09 784.24,-479.15 784.24,-479.15"/>
<polygon fill="#2624a2" stroke="#2624a2" points="827.69,-359.84 835.34,-351.99 829.4,-355.14 831.11,-350.45 831.11,-350.45 831.11,-350.45 829.4,-355.14 826.89,-348.91 827.69,-359.84 827.69,-359.84"/>
</g>
<!-- Protocol -->
<g id="node10" class="node">
<title>Protocol</title>
<path fill="none" stroke="black" d="M874.02,-537.5C874.02,-537.5 999.36,-537.5 999.36,-537.5 1005.36,-537.5 1011.36,-543.5 1011.36,-549.5 1011.36,-549.5 1011.36,-611.5 1011.36,-611.5 1011.36,-617.5 1005.36,-623.5 999.36,-623.5 999.36,-623.5 874.02,-623.5 874.02,-623.5 868.02,-623.5 862.02,-617.5 862.02,-611.5 862.02,-611.5 862.02,-549.5 862.02,-549.5 862.02,-543.5 868.02,-537.5 874.02,-537.5"/>
<text text-anchor="middle" x="936.69" y="-608.3" font-family="Times,serif" font-size="14.00">Protocol</text>
<polyline fill="none" stroke="black" points="862.02,-601.5 1011.36,-601.5"/>
<text text-anchor="start" x="870.02" y="-586.3" font-family="Times,serif" font-size="14.00">id :INTEGER</text>
<text text-anchor="start" x="870.02" y="-572.3" font-family="Times,serif" font-size="14.00">student_id :INTEGER</text>
<text text-anchor="start" x="870.02" y="-558.3" font-family="Times,serif" font-size="14.00">created_at :datetime(6)</text>
<text text-anchor="start" x="870.02" y="-544.3" font-family="Times,serif" font-size="14.00">updated_at :datetime(6)</text>
</g>
<!-- Protocol&#45;&gt;Student -->
<g id="edge12" class="edge">
<title>Protocol&#45;&gt;Student</title>
<path fill="none" stroke="#9fd15f" d="M924.35,-528.02C913.44,-482.5 897.26,-414.95 884.07,-359.91"/>
<polygon fill="#9fd15f" stroke="#9fd15f" points="924.32,-527.89 922.27,-538.66 925.49,-532.75 926.65,-537.61 926.65,-537.61 926.65,-537.61 925.49,-532.75 931.03,-536.56 924.32,-527.89 924.32,-527.89"/>
<polygon fill="#9fd15f" stroke="#9fd15f" points="884.14,-360.21 886.19,-349.44 882.98,-355.35 881.81,-350.49 881.81,-350.49 881.81,-350.49 882.98,-355.35 877.44,-351.54 884.14,-360.21 884.14,-360.21"/>
</g>
<!-- Student&#45;&gt;Teacher -->
<g id="edge13" class="edge">
<title>Student&#45;&gt;Teacher</title>
<path fill="none" stroke="#3f88e0" d="M769.4,-204.43C732.31,-180.3 689.79,-152.62 653.29,-128.87"/>
<polygon fill="#3f88e0" stroke="#3f88e0" points="769.17,-204.28 775.09,-213.51 773.36,-207.01 777.55,-209.74 777.55,-209.74 777.55,-209.74 773.36,-207.01 780,-205.97 769.17,-204.28 769.17,-204.28"/>
<polygon fill="#3f88e0" stroke="#3f88e0" points="653.5,-129 647.57,-119.78 649.31,-126.27 645.12,-123.55 645.12,-123.55 645.12,-123.55 649.31,-126.27 642.66,-127.32 653.5,-129 653.5,-129"/>
</g>
<!-- Teacher&#45;&gt;CommissionAssignment -->
<g id="edge14" class="edge">
<title>Teacher&#45;&gt;CommissionAssignment</title>
<path fill="none" stroke="#a91dad" d="M575.06,-151.9C575.29,-154.97 575.5,-158.01 575.69,-161 579.94,-229.13 581.25,-307.58 581.62,-359.8"/>
<polygon fill="#a91dad" stroke="#a91dad" points="575.07,-151.99 578.76,-141.67 574.67,-147.01 574.28,-142.03 574.28,-142.03 574.28,-142.03 574.67,-147.01 569.79,-142.38 575.07,-151.99 575.07,-151.99"/>
<polygon fill="#a91dad" stroke="#a91dad" points="581.62,-359.57 577.18,-369.59 581.65,-364.57 581.68,-369.57 581.68,-369.57 581.68,-369.57 581.65,-364.57 586.18,-369.54 581.62,-359.57 581.62,-359.57"/>
<text text-anchor="middle" x="650.52" y="-261.3" font-family="Times,serif" font-size="14.00">commision_assignments</text>
</g>
</g>
</svg>
